<?xml version="1.0" encoding="UTF-8"?>
<svg id="Warstwa_1" data-name="Warstwa 1" xmlns="http://www.w3.org/2000/svg" width="250" height="176.262" viewBox="0 0 250 176.262">
  <g>
    <g>
      <path d="M229.699,92.246v4.27h-16.675v-4.677c0-1.242.186-2.305.559-3.186.373-.881.903-1.627,1.593-2.237.689-.61,1.519-1.112,2.491-1.508.971-.395,2.067-.729,3.287-1,.903-.203,1.644-.435,2.22-.695.576-.259,1.034-.553,1.373-.881.339-.327.57-.689.695-1.084.124-.395.186-.842.186-1.339,0-.949-.345-1.74-1.034-2.372-.689-.632-1.644-.949-2.864-.949-1.288,0-2.316.39-3.084,1.169-.768.779-1.152,1.859-1.152,3.237v1.491h-4.474v-1.898c0-1.107.197-2.163.593-3.169.395-1.005.96-1.886,1.695-2.644.734-.757,1.632-1.356,2.694-1.796,1.062-.441,2.259-.661,3.593-.661,1.423,0,2.666.209,3.728.627,1.062.418,1.949.966,2.66,1.644.712.678,1.242,1.463,1.593,2.356.35.893.525,1.813.525,2.762v.407c0,1.989-.559,3.638-1.678,4.948-1.118,1.311-2.943,2.26-5.474,2.847-1.062.249-1.938.503-2.626.763-.69.26-1.226.548-1.61.864-.384.317-.65.661-.796,1.034-.147.373-.22.797-.22,1.271v.407h12.201Z" style="fill: #000000;"/>
      <path d="M232.512,82.011c0-3.072.774-5.457,2.322-7.151,1.547-1.694,3.688-2.542,6.422-2.542s4.875.847,6.422,2.542c1.547,1.695,2.322,4.079,2.322,7.151v5.287c0,3.163-.774,5.57-2.322,7.219-1.548,1.65-3.689,2.474-6.422,2.474s-4.875-.824-6.422-2.474c-1.548-1.649-2.322-4.055-2.322-7.219v-5.287ZM241.256,92.924c.813,0,1.491-.13,2.033-.39.542-.259.983-.627,1.322-1.101.339-.475.576-1.039.712-1.695.136-.655.203-1.378.203-2.169v-5.829c0-.746-.079-1.446-.237-2.101-.158-.655-.407-1.22-.746-1.694-.339-.475-.779-.853-1.322-1.135-.542-.282-1.198-.424-1.966-.424s-1.423.142-1.966.424c-.542.283-.983.661-1.322,1.135-.339.474-.588,1.039-.746,1.694-.158.656-.237,1.356-.237,2.101v5.829c0,.791.068,1.514.203,2.169.136.656.373,1.22.712,1.695.339.475.78.842,1.322,1.101.542.26,1.22.39,2.033.39ZM238.409,84.654c0-.768.282-1.435.847-2,.565-.564,1.231-.847,2-.847s1.435.283,2,.847c.564.565.847,1.232.847,2s-.283,1.435-.847,2c-.565.565-1.232.847-2,.847s-1.435-.282-2-.847c-.565-.564-.847-1.231-.847-2Z" style="fill: #000000;"/>
      <path d="M229.699,120.414v4.27h-16.675v-4.677c0-1.242.186-2.305.559-3.186.373-.881.903-1.627,1.593-2.237.689-.61,1.519-1.112,2.491-1.508.971-.395,2.067-.729,3.287-1,.903-.203,1.644-.435,2.22-.695.576-.259,1.034-.553,1.373-.881.339-.327.57-.689.695-1.084.124-.395.186-.842.186-1.339,0-.949-.345-1.74-1.034-2.372-.689-.632-1.644-.949-2.864-.949-1.288,0-2.316.39-3.084,1.169-.768.779-1.152,1.859-1.152,3.237v1.491h-4.474v-1.898c0-1.107.197-2.163.593-3.169.395-1.005.96-1.886,1.695-2.644.734-.757,1.632-1.356,2.694-1.796,1.062-.441,2.259-.661,3.593-.661,1.423,0,2.666.209,3.728.627,1.062.418,1.949.966,2.66,1.644.712.678,1.242,1.463,1.593,2.356.35.893.525,1.813.525,2.762v.407c0,1.989-.559,3.638-1.678,4.948-1.118,1.311-2.943,2.26-5.474,2.847-1.062.249-1.938.503-2.626.763-.69.26-1.226.548-1.61.864-.384.317-.65.661-.796,1.034-.147.373-.22.797-.22,1.271v.407h12.201Z" style="fill: #000000;"/>
      <path d="M244.882,107.739c-.091-.813-.424-1.513-1-2.101-.576-.587-1.474-.881-2.694-.881-1.198,0-2.147.356-2.847,1.068-.701.712-1.051,1.644-1.051,2.796v3.05h.61c.384-.791.994-1.429,1.83-1.915.836-.486,1.818-.729,2.949-.729.971,0,1.886.175,2.745.525.858.351,1.604.847,2.237,1.491.632.644,1.13,1.429,1.491,2.355.361.927.542,1.977.542,3.152v.407c0,1.198-.198,2.3-.593,3.305-.396,1.005-.961,1.87-1.695,2.593-.735.723-1.622,1.288-2.66,1.694-1.04.407-2.203.61-3.491.61-1.175,0-2.277-.186-3.304-.559-1.028-.373-1.921-.904-2.677-1.593-.757-.689-1.356-1.513-1.796-2.474-.441-.96-.661-2.028-.661-3.203v-8.642c0-1.265.22-2.406.661-3.423.441-1.017,1.045-1.881,1.813-2.593.768-.712,1.661-1.254,2.677-1.627,1.017-.373,2.09-.559,3.22-.559,2.282,0,4.123.565,5.524,1.695,1.401,1.13,2.259,2.757,2.576,4.88l-4.406.678ZM241.256,120.889c1.152,0,2.101-.344,2.847-1.034.746-.689,1.118-1.61,1.118-2.762s-.373-2.073-1.118-2.762c-.745-.689-1.695-1.034-2.847-1.034s-2.101.345-2.847,1.034c-.745.69-1.118,1.61-1.118,2.762s.373,2.073,1.118,2.762c.746.69,1.695,1.034,2.847,1.034Z" style="fill: #000000;"/>
    </g>
    <g>
      <path d="M84.174,72.502h17.22l2.969,39.042v7.571h1.781v-7.571l2.969-39.042h17.22v51.958h-8.907v-34.737l.891-11.876h-1.781l-3.86,46.613h-14.697l-4.008-46.613h-1.781l.891,11.876v34.737h-8.907v-51.958Z" style="fill: #000000;"/>
      <path d="M139.19,109.095c.049,1.089.309,2.091.779,3.006.47.916,1.113,1.707,1.93,2.375.816.668,1.756,1.188,2.82,1.559,1.064.371,2.19.557,3.377.557,2.325,0,4.107-.408,5.344-1.225,1.236-.817,2.127-1.793,2.672-2.932l8.016,4.453c-.445.941-1.065,1.918-1.856,2.932-.792,1.015-1.818,1.942-3.08,2.783-1.262.842-2.796,1.534-4.602,2.078-1.807.544-3.922.817-6.346.817-2.772,0-5.295-.445-7.571-1.336-2.277-.891-4.244-2.177-5.901-3.86-1.659-1.682-2.945-3.736-3.86-6.161-.916-2.424-1.373-5.17-1.373-8.239v-.445c0-2.821.482-5.393,1.447-7.719.965-2.325,2.288-4.305,3.971-5.938,1.682-1.633,3.649-2.906,5.901-3.823,2.251-.915,4.663-1.373,7.237-1.373,3.166,0,5.888.557,8.165,1.67,2.275,1.113,4.157,2.524,5.641,4.231,1.485,1.707,2.572,3.588,3.266,5.641.692,2.054,1.039,4.045,1.039,5.975v4.973h-27.018ZM148.022,95.066c-2.375,0-4.305.606-5.79,1.818-1.485,1.213-2.449,2.611-2.895,4.194h17.369c-.297-1.731-1.225-3.166-2.783-4.305-1.559-1.138-3.526-1.707-5.901-1.707Z" style="fill: #000000;"/>
      <path d="M197.16,119.115h-1.336c-.397.842-.879,1.646-1.447,2.412-.569.768-1.312,1.448-2.227,2.041-.916.594-2.004,1.063-3.266,1.41-1.262.346-2.783.52-4.565.52-2.277,0-4.392-.408-6.346-1.225-1.955-.816-3.663-2.028-5.122-3.637-1.46-1.607-2.598-3.574-3.414-5.901-.817-2.325-1.225-4.997-1.225-8.016v-1.336c0-2.969.433-5.616,1.299-7.942.865-2.325,2.053-4.292,3.563-5.901,1.509-1.607,3.266-2.832,5.27-3.674,2.004-.841,4.12-1.262,6.346-1.262,2.969,0,5.319.557,7.051,1.67,1.732,1.113,3.092,2.685,4.082,4.713h1.336v-20.486h9.352v51.958h-9.352v-5.344ZM187.362,116.591c2.919,0,5.282-.928,7.088-2.784,1.806-1.855,2.709-4.292,2.709-7.311v-.891c0-3.018-.903-5.456-2.709-7.311-1.807-1.856-4.169-2.784-7.088-2.784s-5.283.904-7.088,2.709c-1.807,1.807-2.709,4.268-2.709,7.385v.891c0,3.117.902,5.58,2.709,7.385,1.806,1.807,4.168,2.709,7.088,2.709Z" style="fill: #000000;"/>
    </g>
    <g>
      <path d="M30.799,113.327H13.137l-2.523,11.131H.373l12.393-51.946h18.404l12.393,51.946h-10.241l-2.523-11.131ZM15.215,103.977h13.432l-6.011-26.567h-1.336l-6.085,26.567Z" style="fill: #000000;"/>
      <path d="M46.835,115.554h12.467v-18.997h-11.577v-8.905h20.927v27.903h10.686v8.905h-32.503v-8.905ZM70.953,76.743c0,.99-.185,1.918-.557,2.783-.371.866-.879,1.608-1.521,2.226-.644.619-1.398,1.113-2.263,1.484-.866.371-1.769.557-2.709.557-.99,0-1.905-.185-2.746-.557-.842-.371-1.584-.865-2.226-1.484-.644-.618-1.15-1.36-1.521-2.226-.371-.865-.557-1.793-.557-2.783s.186-1.917.557-2.783c.371-.865.878-1.607,1.521-2.226.642-.618,1.384-1.113,2.226-1.484.841-.371,1.756-.557,2.746-.557.939,0,1.842.186,2.709.557.865.371,1.62.866,2.263,1.484.642.619,1.15,1.361,1.521,2.226.371.866.557,1.794.557,2.783Z" style="fill: #000000;"/>
    </g>
    <g>
      <path d="M8.397,157.61l-1.058-3.174H2.956l-1.024,3.174H0l3.997-11.723h2.385l3.997,11.723h-1.982ZM5.189,147.634h-.084l-1.696,5.173h3.46l-1.679-5.173Z" style="fill: #000000;"/>
      <path d="M15.77,157.61h-1.898v-11.723h5.055c1.052,0,1.881.317,2.486.949.605.633.907,1.492.907,2.578,0,.84-.193,1.537-.579,2.091-.386.554-.955.943-1.705,1.167l2.536,4.938h-2.116l-2.351-4.736h-2.334v4.736ZM18.793,151.278c.481,0,.857-.125,1.125-.376.269-.251.403-.61.403-1.078v-.802c0-.468-.134-.827-.403-1.078-.269-.251-.644-.376-1.125-.376h-3.023v3.711h3.023Z" style="fill: #000000;"/>
      <path d="M30.499,147.567v10.043h-1.898v-10.043h-3.493v-1.68h8.884v1.68h-3.493Z" style="fill: #000000;"/>
      <path d="M36.914,157.61v-1.545h1.595v-8.632h-1.595v-1.545h5.106v1.545h-1.612v8.632h1.612v1.545h-5.106Z" style="fill: #000000;"/>
      <path d="M46.084,157.61v-11.723h7.322v1.68h-5.425v3.258h4.82v1.679h-4.82v5.106h-1.898Z" style="fill: #000000;"/>
      <path d="M56.832,157.61v-1.545h1.595v-8.632h-1.595v-1.545h5.106v1.545h-1.612v8.632h1.612v1.545h-5.106Z" style="fill: #000000;"/>
      <path d="M70.402,157.811c-1.534,0-2.738-.518-3.611-1.553s-1.31-2.539-1.31-4.509c0-.985.112-1.853.336-2.603.224-.75.548-1.383.974-1.898.425-.515.943-.904,1.553-1.167.61-.263,1.296-.395,2.057-.395,1.019,0,1.873.222,2.561.665s1.229,1.101,1.621,1.972l-1.595.873c-.202-.56-.512-1.005-.932-1.335-.42-.33-.971-.495-1.654-.495-.907,0-1.618.309-2.133.927-.515.618-.773,1.472-.773,2.562v1.787c0,1.09.257,1.945.773,2.563.515.618,1.226.927,2.133.927.705,0,1.279-.182,1.721-.546.442-.364.77-.831.982-1.402l1.528.924c-.392.849-.94,1.512-1.646,1.989-.705.477-1.568.715-2.586.715Z" style="fill: #000000;"/>
      <path d="M77.825,157.61v-1.545h1.595v-8.632h-1.595v-1.545h5.106v1.545h-1.612v8.632h1.612v1.545h-5.106Z" style="fill: #000000;"/>
      <path d="M94.317,157.61l-1.058-3.174h-4.383l-1.024,3.174h-1.931l3.997-11.723h2.385l3.997,11.723h-1.982ZM91.109,147.634h-.084l-1.696,5.173h3.46l-1.679-5.173Z" style="fill: #000000;"/>
      <path d="M99.792,157.61v-11.723h1.898v10.043h4.77v1.68h-6.668Z" style="fill: #000000;"/>
      <path d="M115.226,157.61v-1.545h1.595v-8.632h-1.595v-1.545h5.106v1.545h-1.612v8.632h1.612v1.545h-5.106Z" style="fill: #000000;"/>
      <path d="M127.553,151.127l-1.293-2.486h-.05v8.968h-1.814v-11.723h2.116l3.829,6.483,1.293,2.486h.05v-8.968h1.814v11.723h-2.116l-3.829-6.483Z" style="fill: #000000;"/>
      <path d="M142.416,147.567v10.043h-1.898v-10.043h-3.493v-1.68h8.884v1.68h-3.493Z" style="fill: #000000;"/>
      <path d="M149.436,157.61v-11.723h7.507v1.68h-5.609v3.258h5.089v1.679h-5.089v3.426h5.609v1.68h-7.507Z" style="fill: #000000;"/>
      <path d="M161.074,157.61v-11.723h1.898v10.043h4.77v1.68h-6.668Z" style="fill: #000000;"/>
      <path d="M171.369,157.61v-11.723h1.898v10.043h4.77v1.68h-6.668Z" style="fill: #000000;"/>
      <path d="M181.16,157.61v-1.545h1.595v-8.632h-1.595v-1.545h5.106v1.545h-1.612v8.632h1.612v1.545h-5.106Z" style="fill: #000000;"/>
      <path d="M197.87,155.845h-.067c-.123.567-.456,1.036-.999,1.408-.543.372-1.262.558-2.158.558-.694,0-1.338-.132-1.931-.395-.594-.263-1.106-.649-1.537-1.159-.431-.509-.767-1.142-1.008-1.898-.241-.756-.361-1.626-.361-2.612,0-.974.123-1.839.369-2.595.246-.756.593-1.391,1.041-1.906.448-.515.985-.904,1.612-1.167.627-.263,1.327-.395,2.099-.395,1.052,0,1.942.232,2.67.695.728.463,1.293,1.109,1.696,1.935l-1.545.905c-.224-.551-.571-.998-1.041-1.341-.47-.343-1.064-.514-1.78-.514-.929,0-1.677.298-2.242.893-.566.596-.848,1.439-.848,2.529v1.922c0,1.09.283,1.933.848,2.529.565.596,1.313.893,2.242.893.37,0,.722-.048,1.058-.143.336-.095.63-.236.882-.422.252-.186.453-.416.605-.692s.227-.599.227-.971v-.912h-2.418v-1.629h4.249v6.247h-1.663v-1.764Z" style="fill: #000000;"/>
      <path d="M203.849,157.61v-11.723h7.507v1.68h-5.609v3.258h5.089v1.679h-5.089v3.426h5.609v1.68h-7.507Z" style="fill: #000000;"/>
      <path d="M218.645,151.127l-1.293-2.486h-.05v8.968h-1.814v-11.723h2.116l3.829,6.483,1.293,2.486h.05v-8.968h1.814v11.723h-2.116l-3.829-6.483Z" style="fill: #000000;"/>
      <path d="M233.558,157.811c-1.534,0-2.738-.518-3.611-1.553-.873-1.036-1.31-2.539-1.31-4.509,0-.985.112-1.853.336-2.603.224-.75.548-1.383.974-1.898.425-.515.943-.904,1.553-1.167.61-.263,1.296-.395,2.057-.395,1.019,0,1.873.222,2.561.665s1.229,1.101,1.621,1.972l-1.595.873c-.202-.56-.512-1.005-.932-1.335-.42-.33-.972-.495-1.654-.495-.907,0-1.618.309-2.133.927-.515.618-.773,1.472-.773,2.562v1.787c0,1.09.257,1.945.773,2.563.515.618,1.226.927,2.133.927.705,0,1.279-.182,1.721-.546.442-.364.77-.831.982-1.402l1.528.924c-.392.849-.941,1.512-1.646,1.989-.705.477-1.568.715-2.586.715Z" style="fill: #000000;"/>
      <path d="M241.485,157.61v-11.723h7.507v1.68h-5.609v3.258h5.089v1.679h-5.089v3.426h5.609v1.68h-7.507Z" style="fill: #000000;"/>
      <path d="M.571,176.06v-1.545h1.595v-8.632H.571v-1.545h5.106v1.545h-1.612v8.632h1.612v1.545H.571Z" style="fill: #000000;"/>
      <path d="M12.898,169.577l-1.293-2.486h-.05v8.968h-1.814v-11.723h2.116l3.829,6.483,1.293,2.486h.05v-8.968h1.814v11.723h-2.116l-3.829-6.483Z" style="fill: #000000;"/>
      <path d="M38.022,167.092h-.084l-.924,1.898-2.57,4.686-2.57-4.686-.924-1.898h-.084v8.968h-1.814v-11.723h2.25l3.141,5.962h.101l3.141-5.962h2.15v11.723h-1.814v-8.968Z" style="fill: #000000;"/>
      <path d="M44.404,176.06v-11.723h7.507v1.68h-5.609v3.258h5.089v1.679h-5.089v3.426h5.609v1.68h-7.507Z" style="fill: #000000;"/>
      <path d="M56.043,164.337h4.148c.75,0,1.43.123,2.041.37.61.247,1.131.613,1.562,1.1.431.487.764,1.097.999,1.831.235.733.353,1.587.353,2.561s-.118,1.828-.353,2.561c-.235.733-.568,1.344-.999,1.831-.431.487-.952.854-1.562,1.1-.61.247-1.291.37-2.041.37h-4.148v-11.723ZM60.191,174.38c.873,0,1.579-.274,2.116-.823.537-.548.806-1.355.806-2.418v-1.881c0-1.064-.269-1.87-.806-2.418-.537-.549-1.243-.823-2.116-.823h-2.25v8.363h2.25Z" style="fill: #000000;"/>
      <path d="M68.689,176.06v-1.545h1.595v-8.632h-1.595v-1.545h5.106v1.545h-1.612v8.632h1.612v1.545h-5.106Z" style="fill: #000000;"/>
      <path d="M82.259,176.262c-1.534,0-2.738-.518-3.611-1.553s-1.31-2.539-1.31-4.509c0-.985.112-1.853.336-2.603.224-.75.548-1.383.974-1.898.425-.515.943-.904,1.553-1.167.61-.263,1.296-.395,2.057-.395,1.019,0,1.873.222,2.561.665s1.229,1.101,1.621,1.972l-1.595.873c-.202-.56-.512-1.005-.932-1.335-.42-.33-.972-.495-1.654-.495-.907,0-1.618.309-2.133.927-.515.618-.773,1.472-.773,2.562v1.787c0,1.09.257,1.945.773,2.563.515.618,1.226.927,2.133.927.705,0,1.279-.182,1.721-.546.442-.364.77-.831.982-1.402l1.528.924c-.392.849-.941,1.512-1.646,1.989-.705.477-1.568.715-2.586.715Z" style="fill: #000000;"/>
      <path d="M89.682,176.06v-1.545h1.595v-8.632h-1.595v-1.545h5.106v1.545h-1.612v8.632h1.612v1.545h-5.106Z" style="fill: #000000;"/>
      <path d="M102.009,169.577l-1.293-2.486h-.05v8.968h-1.814v-11.723h2.116l3.829,6.483,1.293,2.486h.05v-8.968h1.814v11.723h-2.116l-3.829-6.483Z" style="fill: #000000;"/>
      <path d="M112.522,176.06v-11.723h7.507v1.68h-5.609v3.258h5.089v1.679h-5.089v3.426h5.609v1.68h-7.507Z" style="fill: #000000;"/>
    </g>
  </g>
  <g>
    <path d="M0,30.926v-10.424L37.354,0v10.598l-27.277,14.768v.695l27.277,14.768v10.598L0,30.926Z" style="fill: #000000;"/>
    <path d="M53.885,46.823v-16.679h-15.81v-8.947h15.81V4.517h9.729v16.679h15.81v8.947h-15.81v16.679h-9.729Z" style="fill: #000000;"/>
    <path d="M80.144,40.829l27.277-14.768v-.695l-27.277-14.768V0l37.354,20.501v10.424l-37.354,20.501v-10.598Z" style="fill: #000000;"/>
  </g>
</svg>